<?xml version="1.0" encoding="utf-8"?>
<svg xmlns="http://www.w3.org/2000/svg" viewBox="0 0 30 30" width="480" height="480">
  <path d="M15 3C14.448 3 14 3.448 14 4L14 6L12 6L12 10L10 10L10 8L8 8C7.2610536 8 6.6236132 8.4043659 6.2773438 9L4 9 A 1.0001 1.0001 0 1 0 4 11L6 11L6 14L24 14L24 12C24 11.821821 23.969451 11.652668 23.925781 11.488281L25.707031 9.7070312 A 1.0001 1.0001 0 0 0 24.980469 7.9902344 A 1.0001 1.0001 0 0 0 24.292969 8.2929688L22.511719 10.074219C22.347332 10.030549 22.178179 10 22 10L18 10L18 6L16 6L16 4C16 3.448 15.552 3 15 3 z M 3 16 A 1.0001 1.0001 0 1 0 3 18L3.5390625 18L5.6113281 21.835938C6.0553281 21.931938 6.529 22 7 22C8.73 22 10.536688 21.113516 10.554688 21.103516C10.835688 20.964516 11.165266 20.964516 11.447266 21.103516C11.464266 21.113516 13.27 22 15 22C16.73 22 18.536687 21.113516 18.554688 21.103516C18.835687 20.964516 19.165266 20.964516 19.447266 21.103516C19.464266 21.113516 21.27 22 23 22C23.471 22 23.944672 21.931938 24.388672 21.835938L26.460938 18L27 18 A 1.0001 1.0001 0 1 0 27 16L3 16 z M 2.9648438 22.994141 A 1.0001 1.0001 0 0 0 2.5527344 24.894531C2.5527344 24.894531 4.6666667 26 7 26C8.9465696 26 10.458804 25.333203 11 25.078125C11.541196 25.333203 13.05343 26 15 26C16.94657 26 18.458804 25.333203 19 25.078125C19.541196 25.333203 21.05343 26 23 26C25.333333 26 27.447266 24.894531 27.447266 24.894531 A 1.0001163 1.0001163 0 1 0 26.552734 23.105469C26.552734 23.105469 24.666667 24 23 24C21.333333 24 19.447266 23.105469 19.447266 23.105469 A 1.0001 1.0001 0 0 0 18.552734 23.105469C18.552734 23.105469 16.666667 24 15 24C13.333333 24 11.447266 23.105469 11.447266 23.105469 A 1.0001 1.0001 0 0 0 10.552734 23.105469C10.552734 23.105469 8.6666667 24 7 24C5.3333333 24 3.4472656 23.105469 3.4472656 23.105469 A 1.0001 1.0001 0 0 0 2.9648438 22.994141 z" fill="#fff" />
</svg>