<?xml version="1.0" encoding="utf-8"?>
<svg xmlns="http://www.w3.org/2000/svg" viewBox="0 0 50 50" width="500" height="500">
  <path d="M24 10L24 15L26 15L26 10 Z M 20 16C19.449219 16 19 16.449219 19 17L19 24L31 24L31 17C31 16.449219 30.554688 16 30 16 Z M 9 21C8.449219 21 8 21.449219 8 22L8 24.28125C8.296875 24.109375 8.632813 24 9 24L16 24L16 22C16 21.449219 15.550781 21 15 21 Z M 3.03125 22L2.78125 24L7 24.5625L7 22.53125 Z M 48.875 24.5625L43 26.59375L43 28.6875L49.53125 26.4375 Z M 9 25C8.449219 25 8 25.449219 8 26L8 29L42 29L42 26C42 25.449219 41.554688 25 41 25 Z M 1 31C0.726563 31 0.46875 31.117188 0.28125 31.3125C0.09375 31.507813 -0.0117188 31.757813 0 32.03125C0.136719 35.21875 2.339844 39.359375 3.9375 41.96875C4.957031 41.863281 6.117188 41.53125 6.8125 40.96875C7.34375 40.535156 8 40.3125 8.6875 40.3125C9.375 40.3125 10.058594 40.535156 10.59375 40.96875C11.460938 41.675781 13.058594 42 14.1875 42C15.316406 42 16.945313 41.671875 17.8125 40.96875C18.34375 40.535156 19 40.3125 19.6875 40.3125C20.375 40.3125 21.058594 40.535156 21.59375 40.96875C22.460938 41.675781 24.058594 42 25.1875 42C26.316406 42 27.941406 41.679688 28.8125 40.96875C29.347656 40.535156 30 40.3125 30.6875 40.3125C31.375 40.3125 32.0625 40.535156 32.59375 40.96875C33.460938 41.675781 35.058594 42 36.1875 42C37.316406 42 38.941406 41.679688 39.8125 40.96875C40.347656 40.535156 41 40.3125 41.6875 40.3125C42.375 40.3125 43.0625 40.535156 43.59375 40.96875C44.125 41.402344 44.945313 41.683594 45.75 41.84375C47.144531 37.242188 49.84375 32.558594 49.875 32.5C50.054688 32.191406 50.054688 31.808594 49.875 31.5C49.695313 31.191406 49.355469 31 49 31 Z M 8.6875 42.3125C8.464844 42.3125 8.246094 42.382813 8.0625 42.53125C6.71875 43.621094 4.59375 44 3.1875 44C2.839844 44 2.515625 43.960938 2.21875 43.9375C1.917969 43.910156 1.660156 43.90625 1.40625 43.90625C0.855469 43.90625 0.40625 44.351563 0.40625 44.90625C0.40625 45.460938 0.855469 45.90625 1.40625 45.90625C1.609375 45.90625 1.824219 45.917969 2.0625 45.9375C2.410156 45.96875 2.777344 46 3.1875 46C4.796875 46 6.992188 45.605469 8.6875 44.53125C10.382813 45.605469 12.578125 46 14.1875 46C15.796875 46 17.992188 45.605469 19.6875 44.53125C21.382813 45.605469 23.578125 46 25.1875 46C26.796875 46 28.992188 45.605469 30.6875 44.53125C32.378906 45.605469 34.578125 46 36.1875 46C37.796875 46 39.992188 45.605469 41.6875 44.53125C43.378906 45.605469 45.578125 46 47.1875 46C48.011719 46 48.757813 45.871094 49.375 45.625C49.886719 45.417969 50.140625 44.824219 49.9375 44.3125C49.730469 43.800781 49.136719 43.578125 48.625 43.78125C48.246094 43.933594 47.757813 44 47.1875 44C45.78125 44 43.683594 43.621094 42.34375 42.53125C41.976563 42.230469 41.429688 42.230469 41.0625 42.53125C39.71875 43.621094 37.59375 44 36.1875 44C34.78125 44 32.683594 43.621094 31.34375 42.53125C30.976563 42.230469 30.429688 42.230469 30.0625 42.53125C28.71875 43.621094 26.59375 44 25.1875 44C23.78125 44 21.683594 43.621094 20.34375 42.53125C19.976563 42.230469 19.429688 42.230469 19.0625 42.53125C17.71875 43.621094 15.59375 44 14.1875 44C12.78125 44 10.683594 43.621094 9.34375 42.53125C9.160156 42.382813 8.910156 42.3125 8.6875 42.3125 Z M 8.59375 46.28125C8.550781 46.289063 8.507813 46.300781 8.46875 46.3125C8.316406 46.351563 8.179688 46.425781 8.0625 46.53125C6.765625 47.585938 4.507813 48 3.1875 48C2.582031 48 2.039063 47.90625 1.40625 47.90625C1.046875 47.902344 0.710938 48.089844 0.527344 48.402344C0.347656 48.714844 0.347656 49.097656 0.527344 49.410156C0.710938 49.722656 1.046875 49.910156 1.40625 49.90625C1.773438 49.90625 2.390625 50 3.1875 50C4.691406 50 6.875 49.550781 8.6875 48.375C10.503906 49.566406 12.675781 50 14.1875 50C15.691406 50 17.875 49.550781 19.6875 48.375C21.503906 49.566406 23.675781 50 25.1875 50C26.691406 50 28.875 49.550781 30.6875 48.375C32.503906 49.566406 34.675781 50 36.1875 50C37.691406 50 39.875 49.550781 41.6875 48.375C43.503906 49.566406 45.675781 50 47.1875 50C47.984375 50 48.726563 49.882813 49.375 49.625C49.742188 49.515625 50.011719 49.210938 50.078125 48.835938C50.140625 48.460938 49.988281 48.082031 49.679688 47.855469C49.371094 47.632813 48.960938 47.605469 48.625 47.78125C48.273438 47.921875 47.792969 48 47.1875 48C45.867188 48 43.640625 47.585938 42.34375 46.53125C41.972656 46.222656 41.433594 46.222656 41.0625 46.53125C39.761719 47.585938 37.507813 48 36.1875 48C34.867188 48 32.640625 47.585938 31.34375 46.53125C30.972656 46.222656 30.433594 46.222656 30.0625 46.53125C28.761719 47.585938 26.507813 48 25.1875 48C23.867188 48 21.640625 47.585938 20.34375 46.53125C19.972656 46.222656 19.433594 46.222656 19.0625 46.53125C17.765625 47.585938 15.507813 48 14.1875 48C12.867188 48 10.640625 47.585938 9.34375 46.53125C9.140625 46.347656 8.867188 46.257813 8.59375 46.28125Z" fill="#fff" />
</svg>