<?xml version="1.0" encoding="utf-8"?>
<svg xmlns="http://www.w3.org/2000/svg" viewBox="0 0 24 24" width="96" height="96">
  <path d="M5 4 A 1.0001 1.0001 0 0 0 4 5L4 11.609375C2.2234889 12.523708 1 14.3737 1 16.5C1 19.525721 3.4742785 22 6.5 22C9.0054253 22 11.12762 20.301307 11.785156 18L16.050781 18C16.026575 18.164905 16 18.328781 16 18.5C16 20.421152 17.578848 22 19.5 22C21.421152 22 23 20.421152 23 18.5C23 17.116848 22.175306 15.9223 21 15.355469L21 13L21 10 A 1.0001 1.0001 0 0 0 20 9L17 9L17 6L19 6L19 4L17 4C15.906937 4 15 4.9069372 15 6L15 9L12.677734 9L10.927734 4.6289062 A 1.0001 1.0001 0 0 0 10 4L5 4 z M 6 6L9.3222656 6L11.072266 10.371094 A 1.0001 1.0001 0 0 0 12 11L19 11L19 13L19 15.050781C18.254531 15.160206 17.580203 15.496618 17.0625 16.001953 A 1.0001 1.0001 0 0 0 17 16L11.974609 16C11.719773 13.206642 9.3570532 11 6.5 11C6.3313317 11 6.164908 11.010346 6 11.025391L6 6 z M 6.5 13C8.4448413 13 10 14.555159 10 16.5C10 18.444841 8.4448413 20 6.5 20C4.5551587 20 3 18.444841 3 16.5C3 14.555159 4.5551587 13 6.5 13 z M 6.5 15 A 1.5 1.5 0 0 0 5 16.5 A 1.5 1.5 0 0 0 6.5 18 A 1.5 1.5 0 0 0 8 16.5 A 1.5 1.5 0 0 0 6.5 15 z M 19.5 17C20.340272 17 21 17.659728 21 18.5C21 19.340272 20.340272 20 19.5 20C18.659728 20 18 19.340272 18 18.5C18 17.659728 18.659728 17 19.5 17 z" fill="#08043b" />
</svg>