<?xml version="1.0" encoding="utf-8"?>
<svg xmlns="http://www.w3.org/2000/svg" viewBox="0 0 50 50" width="500" height="500">
  <path d="M2.8125 8C1.277344 8 0 9.277344 0 10.8125L0 37C0 38.644531 1.355469 40 3 40L7.09375 40C7.570313 42.835938 10.035156 45 13 45C15.964844 45 18.429688 42.835938 18.90625 40L34.09375 40C34.570313 42.835938 37.035156 45 40 45C42.964844 45 45.429688 42.835938 45.90625 40L47 40C47.832031 40 48.5625 39.625 49.09375 39.09375C49.625 38.5625 50 37.832031 50 37L50 27.40625C50 26.28125 49.570313 25.25 49.1875 24.46875C48.804688 23.6875 48.40625 23.125 48.40625 23.125L48.40625 23.09375L44.3125 17.59375L44.28125 17.59375L44.28125 17.5625C43.394531 16.453125 41.972656 15 40 15L32 15C31.640625 15 31.3125 15.066406 31 15.1875L31 10.90625C31 9.304688 29.695313 8 28.09375 8 Z M 2.8125 10L28.09375 10C28.492188 10 29 10.507813 29 10.90625L29 38L18.90625 38C18.429688 35.164063 15.964844 33 13 33C10.035156 33 7.570313 35.164063 7.09375 38L3 38C2.445313 38 2 37.554688 2 37L2 10.8125C2 10.347656 2.347656 10 2.8125 10 Z M 22.9375 14.59375L22.25 15.3125L14.15625 24.1875L8.90625 19.59375L7.59375 21.09375L8.34375 21.75L13.53125 26.34375L14.28125 27L14.9375 26.28125L23.75 16.6875L24.40625 15.9375 Z M 32 17L36 17L36 26C36 26.832031 36.375 27.5625 36.90625 28.09375C37.4375 28.625 38.167969 29 39 29L48 29L48 37C48 37.167969 47.875 37.4375 47.65625 37.65625C47.4375 37.875 47.167969 38 47 38L45.90625 38C45.429688 35.164063 42.964844 33 40 33C37.035156 33 34.570313 35.164063 34.09375 38L31 38L31 18C31 17.832031 31.125 17.5625 31.34375 17.34375C31.5625 17.125 31.832031 17 32 17 Z M 38 17L40 17C40.824219 17 41.972656 17.925781 42.6875 18.8125L46.78125 24.28125L46.8125 24.3125C46.832031 24.339844 47.101563 24.722656 47.40625 25.34375C47.660156 25.859375 47.792969 26.472656 47.875 27L39 27C38.832031 27 38.5625 26.875 38.34375 26.65625C38.125 26.4375 38 26.167969 38 26 Z M 13 35C15.222656 35 17 36.777344 17 39C17 41.222656 15.222656 43 13 43C10.777344 43 9 41.222656 9 39C9 36.777344 10.777344 35 13 35 Z M 40 35C42.222656 35 44 36.777344 44 39C44 41.222656 42.222656 43 40 43C37.777344 43 36 41.222656 36 39C36 36.777344 37.777344 35 40 35Z" fill="#fff" />
</svg>