<?xml version="1.0" encoding="utf-8"?>
<svg xmlns="http://www.w3.org/2000/svg" viewBox="0 0 32 32" width="512" height="512">
  <path d="M3 5L3 16L1 16L1 25L4.1445312 25C4.5944004 26.715801 6.149665 28 8 28C9.8435942 28 11.340521 26.706363 11.796875 25L20.144531 25C20.5944 26.715801 22.149665 28 24 28C25.850335 28 27.4056 26.715801 27.855469 25L31 25L31 14.585938L24.414062 8L19 8L19 16L17 16L17 5L3 5 z M 5 7L15 7L15 16L5 16L5 7 z M 8 9L8 11L12 11L12 9L8 9 z M 21 10L23.585938 10L29 15.414062L29 23L27.855469 23C27.4056 21.284199 25.850335 20 24 20C22.802849 20 21.735155 20.546205 21 21.388672L21 10 z M 3 18L19 18L19 23L11.796875 23C11.340521 21.293637 9.8435942 20 8 20C6.149665 20 4.5944004 21.284199 4.1445312 23L3 23L3 18 z M 8 22C9.1166661 22 10 22.883334 10 24C10 25.116666 9.1166661 26 8 26C6.8833339 26 6 25.116666 6 24C6 22.883334 6.8833339 22 8 22 z M 24 22C25.116666 22 26 22.883334 26 24C26 25.116666 25.116666 26 24 26C22.883334 26 22 25.116666 22 24C22 22.883334 22.883334 22 24 22 z" fill="#ffffff" />
</svg>